<?xml version="1.0" standalone="no"?>
<!DOCTYPE svg PUBLIC "-//W3C//DTD SVG 20010904//EN"
 "http://www.w3.org/TR/2001/REC-SVG-20010904/DTD/svg10.dtd">
<svg version="1.0" xmlns="http://www.w3.org/2000/svg"
 width="700.000000pt" height="700.000000pt" viewBox="0 0 700.000000 700.000000"
 preserveAspectRatio="xMidYMid meet">
<metadata>
Created by potrace 1.14, written by Peter Selinger 2001-2017
</metadata>
<g transform="translate(0.000000,700.000000) scale(0.100000,-0.100000)"
fill="#000000" stroke="none">
<path d="M0 3500 l0 -3500 3500 0 3500 0 0 3500 0 3500 -3500 0 -3500 0 0
-3500z m1920 1220 l0 -2260 1119 0 c886 0 1120 -3 1123 -12 11 -38 -3 -900
-16 -978 -3 -14 -7 -43 -11 -65 -12 -85 -18 -112 -37 -180 -54 -190 -162 -289
-363 -332 -317 -67 -587 55 -694 314 -25 61 -52 158 -65 238 -8 43 -23 201
-25 258 -1 27 -3 28 -38 23 -46 -7 -99 -13 -178 -21 -33 -3 -71 -8 -85 -10
-14 -2 -52 -7 -84 -10 -33 -3 -73 -7 -90 -10 -17 -2 -58 -7 -91 -10 -57 -6
-86 -10 -157 -19 -18 -3 -69 -8 -113 -11 -44 -4 -83 -9 -87 -11 -7 -4 -2 -182
6 -259 54 -494 232 -847 536 -1064 82 -58 108 -73 200 -117 41 -19 84 -39 95
-44 44 -21 213 -64 330 -85 115 -20 412 -26 576 -12 80 7 97 9 159 22 14 2 41
7 60 10 97 16 244 64 360 118 292 135 558 426 670 733 47 128 91 342 104 504
3 36 9 101 12 145 12 135 11 3414 -1 3418 -5 2 -226 3 -490 3 l-480 -1 -2
-865 c-1 -476 -2 -873 -2 -882 -1 -17 -39 -18 -659 -18 l-658 0 0 1875 0 1875
2068 0 2068 0 0 -3480 0 -3480 -3480 0 -3480 0 0 3480 0 3480 950 0 950 0 0
-2260z"/>
</g>
</svg>
