<?xml version="1.0" standalone="no"?>
<!DOCTYPE svg PUBLIC "-//W3C//DTD SVG 20010904//EN"
 "http://www.w3.org/TR/2001/REC-SVG-20010904/DTD/svg10.dtd">
<svg version="1.0" xmlns="http://www.w3.org/2000/svg"
 width="700.000000pt" height="700.000000pt" viewBox="0 0 700.000000 700.000000"
 preserveAspectRatio="xMidYMid meet">
<metadata>
Created by potrace 1.14, written by Peter Selinger 2001-2017
</metadata>
<g transform="translate(0.000000,700.000000) scale(0.100000,-0.100000)"
fill="#000000" stroke="none">
<path d="M1920 4729 l0 -2269 1120 0 c889 0 1120 -3 1121 -12 0 -7 1 -166 1
-353 0 -313 -6 -563 -17 -625 -2 -14 -6 -43 -10 -65 -12 -85 -18 -112 -37
-180 -57 -201 -163 -292 -398 -341 -54 -11 -189 -10 -259 2 -132 23 -255 99
-340 211 -52 68 -101 205 -125 348 -8 43 -23 201 -25 258 -1 27 -3 28 -38 23
-21 -3 -65 -8 -98 -12 -33 -3 -71 -7 -85 -9 -25 -3 -89 -11 -170 -20 -25 -3
-65 -8 -90 -10 -25 -3 -67 -8 -95 -11 -27 -3 -63 -8 -80 -10 -16 -2 -50 -6
-75 -8 -137 -13 -176 -18 -187 -21 -20 -6 -8 -225 22 -410 64 -402 244 -721
515 -914 82 -58 108 -73 200 -117 41 -19 84 -39 95 -44 44 -21 213 -64 330
-85 147 -25 562 -26 685 0 56 11 77 15 110 20 97 16 244 64 360 118 247 114
489 352 612 602 86 174 143 397 162 635 3 36 9 101 12 145 7 80 13 3391 7
3411 -3 7 -153 10 -492 10 l-488 0 -1 -865 c0 -477 -1 -874 -1 -883 -1 -17
-39 -18 -659 -18 l-657 0 0 1884 0 1884 -462 0 -463 0 0 -2269z"/>
</g>
</svg>
